<?xml version="1.0" encoding="iso-8859-1"?>
<!-- Uploaded to: SVG Repo, www.svgrepo.com, Generator: SVG Repo Mixer Tools -->
<!DOCTYPE svg PUBLIC "-//W3C//DTD SVG 1.1//EN" "http://www.w3.org/Graphics/SVG/1.1/DTD/svg11.dtd">
<svg fill="#000000" version="1.1" id="Capa_1" xmlns="http://www.w3.org/2000/svg" xmlns:xlink="http://www.w3.org/1999/xlink" 
	 width="800px" height="800px" viewBox="0 0 546.651 546.652"
	 xml:space="preserve">
<g>
	<path d="M154.537,183.875v-62.8c0-13.5,11-24.5,24.5-24.5s24.5,11,24.5,24.5v62.8c0,13.5-11,24.5-24.5,24.5
		C165.437,208.375,154.537,197.476,154.537,183.875z M273.337,208.375c13.5,0,24.5-11,24.5-24.5v-62.8c0-13.5-11-24.5-24.5-24.5
		s-24.5,11-24.5,24.5v62.8C248.837,197.476,259.837,208.375,273.337,208.375z M367.637,208.375c13.5,0,24.5-11,24.5-24.5v-62.8
		c0-13.5-11-24.5-24.5-24.5s-24.5,11-24.5,24.5v62.8C343.237,197.476,354.137,208.375,367.637,208.375z M542.837,352.175
		c-8.2,24.601-27.9,44.9-54.2,55.601c-68.6,28.1-141,42.3-215.3,42.3s-146.7-14.2-215.3-42.3c-26.301-10.7-46.1-31-54.2-55.601
		c-6.2-18.7-4.8-37.6,3.7-53.8c-0.9-1.4-1.9-2.8-2.5-4.4c-8-20.8-6.4-42.899,4.3-60.6c20.7-34.4,67-48.1,107.7-31.6
		c100.8,41.3,211.8,41.3,312.5,0c40.7-16.5,87-2.8,107.8,31.6c10.2,16.9,12.1,38.2,5.1,58.3c-0.8,2.4-2.1,4.4-3.5,6.4
		C547.637,314.276,549.037,333.375,542.837,352.175z M51.236,258.675c-0.6,1.1-0.899,2.2-1.3,3.3c9.7-3.6,20.3-5.5,31.3-5.5
		c12.301,0,24.301,2.3,35.7,6.9c49.9,20.4,102.4,30.8,156.3,30.8c53.9,0,106.4-10.3,156.2-30.7c11.5-4.7,23.5-7,35.801-7
		c11.1,0,21.6,1.9,31.3,5.5c-0.3-1.1-0.601-2.2-1.3-3.3c-8.4-13.9-29.2-19-47.4-11.6c-112.6,46.1-236.7,46.1-349.4,0
		C80.437,239.775,59.637,244.875,51.236,258.675z M495.437,320.375c-5.6-9.4-16.899-15-30-15c-5.899,0-11.899,1.2-17.399,3.4
		c-55.601,22.8-114.4,34.3-174.7,34.3s-119-11.5-174.8-34.3c-5.4-2.2-11.4-3.301-17.301-3.301c-13.199,0-24.399,5.601-30,14.9
		c-3.6,5.9-2.1,12.9-1,16.5c3.601,10.8,13.4,20.5,26.301,25.7c62.699,25.7,128.899,38.7,196.8,38.7s134-13,196.7-38.7
		c12.899-5.3,22.7-14.9,26.3-25.7C497.537,333.276,499.037,326.276,495.437,320.375z"/>
</g>
</svg>